<svg width="175" height="163" viewBox="0 0 175 163" fill="none" xmlns="http://www.w3.org/2000/svg">
<g clip-path="url(#clip0_6_5)">
<path d="M64.333 20.7116C67.3989 26.3191 68.711 32.2843 68.4469 38.5989C68.1292 46.2167 65.2821 52.8397 60.3842 58.6239C59.5424 59.6147 58.321 59.4996 57.6278 58.3444C55.2057 54.3073 53.6171 50.0277 53.3324 45.2506C52.8743 37.6328 54.8838 30.7508 59.0638 24.4321C59.3278 24.0334 59.6291 23.6592 59.9097 23.2769C54.3804 24.6171 39.7651 38.9278 35.1973 47.487C41.135 52.0257 45.4058 57.7031 47.407 64.992C48.8099 70.0938 48.4881 75.1422 47.275 80.1989C46.9737 81.4527 45.7977 81.9255 44.6837 81.1485C38.0527 76.5277 33.5427 70.4474 32.2594 62.3568C31.8096 59.5325 31.8509 56.6301 31.6652 53.7235C27.3904 62.4925 24.6588 71.7218 24.0522 81.4938C26.5816 82.3654 29.0945 83.0232 31.43 84.0674C40.1777 87.9811 46.4249 94.1724 48.9048 103.669C49.4578 105.794 48.942 106.534 46.7757 106.292C36.5219 105.141 29.2101 99.8251 24.6877 90.6245C24.4855 90.2134 24.2668 89.8106 23.9697 89.2432C23.7386 94.119 25.2695 104.528 28.096 111.521C31.4506 111.254 34.7682 111.673 37.8877 113.12C44.8157 116.335 49.4041 121.47 50.9845 129.055C51.0629 129.429 51.067 129.82 51.0794 130.202C51.1454 131.892 50.7988 132.315 49.1318 132.27C45.9257 132.183 42.8763 131.357 39.9219 130.157C39.5382 130 39.1586 129.828 38.6056 129.589C57.3844 154.856 88.0716 165.602 118.433 157.031C148.414 148.57 170.733 122.309 171.839 86.3531C168.712 84.9019 165.551 83.5247 162.469 81.9831C153.609 77.5472 145.382 72.0877 137.859 65.6991C129.19 58.3444 120.855 50.5991 112.375 43.0265C111.728 42.4469 110.952 41.97 110.453 41.2875C110.118 40.8312 109.896 39.9473 110.127 39.528C110.362 39.1004 111.278 38.7058 111.781 38.8168C126.739 42.0851 140.628 47.7748 152.887 57.0823C153.96 57.8963 154.996 58.7637 156.027 59.627C157.018 60.4575 157.983 61.3208 159.101 62.0731C157.843 60.0793 156.597 58.0813 155.326 56.0956C144.602 39.3964 136.65 21.394 130.102 2.73387C130.04 2.55299 130.007 2.36388 129.929 2.19121C129.557 1.36489 129.466 0.419338 130.387 0.0904524C131.006 -0.131546 132.033 0.0493416 132.565 0.456338C134.513 1.94866 136.39 3.54376 138.189 5.21696C147.086 13.4843 154.963 22.578 161.074 33.1312C167.086 43.5116 171.204 54.5704 173.362 66.3363C174.963 75.0682 175.491 83.8865 174.546 92.7376C172.751 109.593 166.686 124.701 155.285 137.396C143.9 150.071 129.792 158.165 112.965 161.512C106.434 162.811 99.848 163.275 93.2583 162.84C77.4299 161.795 63.1653 156.451 50.7617 146.519C47.4606 143.875 44.4361 140.899 41.2382 138.033C41.2918 138.732 41.4115 139.542 41.4033 140.352C41.3909 141.696 41.3331 143.041 41.2176 144.381C41.102 145.729 40.1035 146.28 38.8738 145.651C30.4438 141.331 25.4263 133.511 26.1814 124.668C26.3134 123.11 27.1799 121.622 27.6751 120.089C27.803 119.69 27.9969 119.155 27.8401 118.839C25.3933 113.877 23.6602 108.676 22.4677 103.287C22.4265 103.102 22.3563 102.921 22.2201 102.489C22.0097 103.04 21.8735 103.398 21.7415 103.755C19.6948 109.408 16.4516 114.28 12.0653 118.399C10.8151 119.571 9.56481 119.283 9.00364 117.643C5.85115 108.421 7.59245 100.01 13.3486 92.306C15.0734 89.9956 17.2892 88.2566 19.8393 86.8876C20.3014 86.6409 20.7594 85.905 20.7718 85.3829C20.8997 79.315 21.7291 73.3498 23.2311 67.471C23.4044 66.7844 23.5942 66.102 23.8583 65.0989C22.7318 66.3199 21.8281 67.3353 20.8915 68.3137C15.713 73.6992 9.18932 76.5606 2.03846 78.2091C0.491105 78.5668 -0.268132 77.5965 0.111487 75.837C0.944997 71.9356 2.55425 68.3631 4.96813 65.1934C8.7313 60.256 13.5095 56.7246 19.7485 55.664C21.9354 55.294 24.2379 55.6187 26.4826 55.5735C26.8581 55.5653 27.444 55.3885 27.5678 55.1213C30.0312 49.7646 32.9567 44.6792 36.3403 40.2022C33.0063 40.6668 29.5649 41.2218 26.103 41.6C24.5804 41.7685 23.0165 41.6246 21.4733 41.5548C20.1446 41.4931 19.5834 40.5475 20.2271 39.343C23.5406 33.1682 28.4096 28.8392 35.3459 27.1454C39.4639 26.1382 43.6108 25.9532 47.7701 27.1125C48.2405 27.2441 48.9997 26.8412 49.4536 26.4753C55.5688 21.5585 62.2946 17.7023 69.6106 14.8739C79.2826 11.1287 89.3053 9.55004 99.6871 9.73092C109.652 9.90359 119.085 12.1852 128.237 15.9181C129.887 16.5923 130.531 17.394 130.106 18.319C129.665 19.2851 128.484 19.4495 126.933 18.7753C115.974 14.0106 104.552 12.0742 92.5981 12.9088C83.2273 13.5624 74.3434 15.8605 65.868 19.8359C65.476 20.0209 65.0923 20.2265 64.7085 20.4279C64.626 20.4732 64.56 20.543 64.3495 20.7116H64.333ZM134.748 6.42151C143.207 31.2442 156.304 53.5385 171.472 75.134C168.431 47.0965 155.635 24.6418 134.748 6.42151ZM117.063 42.8251L116.894 43.2115C133.461 58.8048 150.222 74.135 172.099 83.0602C171.848 82.2379 171.827 81.6007 171.509 81.2061C167.899 76.7661 164.441 72.1823 160.558 67.989C152.396 59.1707 142.402 52.8931 131.385 48.2311C126.689 46.2455 121.845 44.6134 117.067 42.8251H117.063ZM62.9383 24.4198C55.7132 33.2504 54.0751 47.0266 59.4104 55.1336C66.26 45.5795 67.077 35.4087 62.9383 24.4198ZM35.2798 51.4337C33.3446 63.1215 37.8175 72.5852 44.8776 77.3211C46.5776 66.9448 43.1074 58.5376 35.2798 51.4337ZM24.3782 58.4019C14.0955 57.5345 5.4344 66.916 3.68485 74.5502C11.2195 73.5019 21.1308 65.8019 24.3782 58.4019ZM25.8554 85.4446C29.1853 96.3883 38.2054 102.382 45.4718 102.987C43.4375 94.6041 34.2235 87.1548 25.8554 85.4446ZM20.5696 90.0243C12.9195 94.1107 8.54562 106.399 11.2566 114.896C18.0773 108.006 20.7305 99.6401 20.5696 90.0243ZM29.3545 114.452C32.4244 124.43 41.4074 128.759 47.8361 128.956C46.689 121.256 37.3389 113.877 29.3545 114.452ZM45.5337 29.8135C36.8808 28.1198 27.8484 32.1034 24.3039 38.7222C32.5441 38.5701 39.8889 36.4488 45.5337 29.8135ZM29.8538 122.502C27.1717 127.246 31.0504 138.597 38.2962 141.585C38.4199 138.428 38.1559 135.254 36.5755 132.529C34.5701 129.067 32.1315 125.856 29.8538 122.502Z" fill="#E6C275"/>
</g>
<defs>
<clipPath id="clip0_6_5">
<rect width="175" height="163" fill="white"/>
</clipPath>
</defs>
</svg>
