<svg width="40" height="40" viewBox="0 0 40 40" fill="none" xmlns="http://www.w3.org/2000/svg">
<path d="M20 0C20.663 0 21.2989 0.263393 21.7678 0.732234C22.2366 1.20107 22.5 1.83696 22.5 2.5V17.5H37.5C38.163 17.5 38.7989 17.7634 39.2678 18.2322C39.7366 18.7011 40 19.337 40 20C40 20.663 39.7366 21.2989 39.2678 21.7678C38.7989 22.2366 38.163 22.5 37.5 22.5H22.5V37.5C22.5 38.163 22.2366 38.7989 21.7678 39.2678C21.2989 39.7366 20.663 40 20 40C19.337 40 18.7011 39.7366 18.2322 39.2678C17.7634 38.7989 17.5 38.163 17.5 37.5V22.5H2.5C1.83696 22.5 1.20107 22.2366 0.732234 21.7678C0.263393 21.2989 0 20.663 0 20C0 19.337 0.263393 18.7011 0.732234 18.2322C1.20107 17.7634 1.83696 17.5 2.5 17.5H17.5V2.5C17.5 1.83696 17.7634 1.20107 18.2322 0.732234C18.7011 0.263393 19.337 0 20 0Z" fill="black"/>
</svg>
