<svg width="65" height="50" viewBox="0 0 65 50" fill="none" xmlns="http://www.w3.org/2000/svg">
<path d="M52.2709 26.3959C53.9708 27.7496 55.4157 29.5262 56.6056 31.7259C57.9655 33.7563 58.6454 35.956 58.6454 38.3249C58.6454 41.8782 57.4555 44.7547 55.0757 46.9543C52.8659 48.9848 49.9761 50 46.4064 50C43.0066 50 40.1169 48.5618 37.737 45.6853C35.3572 42.6396 33.9124 39.0017 33.4024 34.7716L33.1474 32.4873C33.1474 26.5651 35.6122 20.5584 40.5418 14.467C45.4714 8.20643 51.421 3.55329 58.3904 0.507608C59.4104 0.169203 60.0903 0 60.4303 0C61.4502 0 62.3001 0.338405 62.9801 1.01522C63.66 1.69204 64 2.53806 64 3.5533C64 4.73773 63.49 5.75295 62.4701 6.59898C59.0704 8.79864 55.9256 11.6751 53.0359 15.2284C50.3161 18.6125 48.6162 21.7428 47.9362 24.6193C48.1062 24.6193 48.7862 24.8731 49.9761 25.3807C51.166 25.7191 51.9309 26.0575 52.2709 26.3959ZM19.1235 26.3959C20.8234 27.7496 22.2683 29.5262 23.4582 31.7259C24.8181 33.7563 25.498 35.956 25.498 38.3249C25.498 41.8782 24.3081 44.7547 21.9283 46.9543C19.7185 48.9848 16.8287 50 13.259 50C9.85923 50 6.96945 48.5618 4.58964 45.6853C2.20983 42.6396 0.76494 39.0017 0.25498 34.7716L0 32.4873C0 26.5651 2.46481 20.5584 7.39442 14.467C12.324 8.20643 18.2736 3.55329 25.243 0.507608C26.2629 0.169203 26.9429 0 27.2829 0C28.3028 0 29.1527 0.338405 29.8327 1.01522C30.5126 1.69204 30.8526 2.53806 30.8526 3.5533C30.8526 4.73773 30.3426 5.75295 29.3227 6.59898C25.923 8.79864 22.7782 11.6751 19.8884 15.2284C17.1687 18.6125 15.4688 21.7428 14.7888 24.6193C14.9588 24.6193 15.6388 24.8731 16.8287 25.3807C18.0186 25.7191 18.7835 26.0575 19.1235 26.3959Z" fill="#789871"/>
</svg>
