<svg width="65" height="50" viewBox="0 0 65 50" fill="none" xmlns="http://www.w3.org/2000/svg">
<path d="M12.7291 23.6041C11.0292 22.2504 9.58433 20.4738 8.39443 18.2741C7.03454 16.2437 6.35459 14.044 6.35459 11.6751C6.35459 8.12182 7.5445 5.24534 9.92431 3.04568C12.1341 1.01522 15.0239 -3.1064e-07 18.5936 0C21.9934 2.95847e-07 24.8831 1.43824 27.263 4.31471C29.6428 7.3604 31.0876 10.9983 31.5976 15.2284L31.8526 17.5127C31.8526 23.4349 29.3878 29.4416 24.4582 35.533C19.5286 41.7936 13.579 46.4467 6.60956 49.4924C5.58964 49.8308 4.9097 50 4.56973 50C3.54981 50 2.69987 49.6616 2.01992 48.9848C1.33997 48.308 1 47.4619 1 46.4467C1 45.2623 1.50996 44.247 2.52988 43.401C5.92962 41.2014 9.07437 38.3249 11.9641 34.7716C14.6839 31.3875 16.3838 28.2572 17.0637 25.3807C16.8938 25.3807 16.2138 25.1269 15.0239 24.6193C13.834 24.2809 13.0691 23.9425 12.7291 23.6041ZM45.8765 23.6041C44.1766 22.2504 42.7317 20.4738 41.5418 18.2741C40.1819 16.2437 39.502 14.044 39.502 11.6751C39.502 8.12183 40.6919 5.24534 43.0717 3.04568C45.2815 1.01523 48.1713 2.57387e-06 51.741 2.88451e-06C55.1408 3.18036e-06 58.0305 1.43824 60.4104 4.31471C62.7902 7.3604 64.2351 10.9983 64.745 15.2284L65 17.5127C65 23.4349 62.5352 29.4416 57.6056 35.533C52.676 41.7936 46.7264 46.4467 39.757 49.4924C38.737 49.8308 38.0571 50 37.7171 50C36.6972 50 35.8473 49.6616 35.1673 48.9848C34.4874 48.308 34.1474 47.4619 34.1474 46.4467C34.1474 45.2623 34.6574 44.247 35.6773 43.401C39.077 41.2014 42.2218 38.3249 45.1115 34.7716C47.8313 31.3875 49.5312 28.2572 50.2112 25.3807C50.0412 25.3807 49.3612 25.1269 48.1713 24.6193C46.9814 24.2809 46.2165 23.9425 45.8765 23.6041Z" fill="#789871"/>
</svg>
